<?xml version="1.0" encoding="UTF-8"?>
<svg version="1.1" xmlns="http://www.w3.org/2000/svg" width="800" height="800">
<path d="M0 0 C8.23273923 7.02854752 14.50342355 15.10261059 16.2421875 25.984375 C17.2736947 40.06731361 15.56861281 50.9228008 6.2421875 61.984375 C-3.6597678 72.46454667 -14.04538199 74.76346601 -27.7578125 76.984375 C-27.4278125 77.665 -27.0978125 78.345625 -26.7578125 79.046875 C-24.7789677 84.8597316 -25.87342328 90.2363817 -27.1328125 96.109375 C-29.77951641 109.37273868 -30.92887008 122.71821387 -30.6953125 136.234375 C-30.59107895 142.76441362 -30.94857367 148.98187348 -32.0703125 155.421875 C-32.24711548 156.45973145 -32.24711548 156.45973145 -32.42749023 157.51855469 C-33.40644664 162.55820471 -35.35382167 166.01736246 -38.296875 170.140625 C-40.47707943 174.3844454 -41.1902957 178.83135964 -42.1328125 183.484375 C-43.48847869 189.8671949 -44.89964343 195.90688702 -47.4453125 201.921875 C-49.89264613 207.73429237 -50.69558352 213.35597838 -51.30078125 219.57421875 C-51.7578125 222.984375 -51.7578125 222.984375 -52.78515625 225.8984375 C-54.01477794 229.79964687 -54.04684547 233.35960543 -54.1328125 237.421875 C-54.56778886 248.17357024 -56.90185438 257.77317375 -61.13452148 267.703125 C-68.1950221 284.3030614 -65.50581611 300.31086013 -59.4453125 316.921875 C-57.62130876 321.34593377 -55.4231215 325.44558647 -53.0703125 329.609375 C-40.11269834 353.07924012 -44.88849065 392.45705521 -50.859375 417.71484375 C-52.58550033 425.40249454 -51.35083756 430.2065113 -47.73046875 437.15625 C-45.1013153 440.92557099 -42.26710479 442.49786594 -38.234375 444.55078125 C-33.40603277 447.34573645 -29.52322717 451.68813099 -27.7578125 456.984375 C-27.51893301 461.36383225 -27.63456856 464.16589282 -29.7578125 467.984375 C-28.84644531 468.43425781 -27.93507813 468.88414062 -26.99609375 469.34765625 C-23.40539009 471.12626875 -19.82535271 472.92556733 -16.24804688 474.73095703 C-14.57177221 475.57468194 -12.89333632 476.41412515 -11.21289062 477.24951172 C6.08082654 485.867092 21.2291724 495.64084497 35.2421875 508.984375 C37.34313847 510.84331325 39.4614583 512.67980555 41.5859375 514.51171875 C44.79476637 517.36485197 44.79476637 517.36485197 46.2421875 518.984375 C46.2421875 519.644375 46.2421875 520.304375 46.2421875 520.984375 C48.1603125 521.0771875 48.1603125 521.0771875 50.1171875 521.171875 C60.77152108 522.42921871 69.49144887 529.61735342 78.11474609 535.52929688 C80.32367549 537.04010927 82.54186363 538.5365444 84.76171875 540.03125 C96.14374584 547.72155268 107.2611295 555.732654 118.2421875 563.984375 C118.84756348 564.4390918 119.45293945 564.89380859 120.07666016 565.36230469 C128.69287557 571.85879629 137.06095036 578.65185064 145.40869141 585.48730469 C147.03912789 586.81857453 148.67723569 588.14043669 150.31640625 589.4609375 C154.87858159 593.14451987 159.27326772 596.91426695 163.5546875 600.921875 C169.68076595 606.5773996 176.38144828 611.27700648 183.2421875 615.984375 C182.9121875 618.624375 182.5821875 621.264375 182.2421875 623.984375 C184.77503268 626.31459257 186.13994531 626.97112138 189.6171875 627.421875 C193.2421875 627.984375 193.2421875 627.984375 196.3046875 630.171875 C199.13476071 632.36762378 199.13476071 632.36762378 202.4296875 631.421875 C204.99042588 630.11305316 206.30148854 629.01328755 208.2421875 626.984375 C208.86351562 626.8503125 209.48484375 626.71625 210.125 626.578125 C212.63772517 625.87344931 213.65419315 624.8714859 215.4921875 623.046875 C219.29384043 619.65312474 222.20524314 618.71554434 227.2421875 617.984375 C230.2421875 618.359375 230.2421875 618.359375 232.2421875 618.984375 C232.03515625 620.83984375 232.03515625 620.83984375 231.2421875 622.984375 C229.16796875 624.22265625 229.16796875 624.22265625 226.5546875 625.296875 C219.40030762 628.61855137 216.18990795 633.36212988 212.2421875 639.984375 C216.47046275 640.21425652 220.69968043 640.41417803 224.9296875 640.609375 C226.10853516 640.67382812 227.28738281 640.73828125 228.50195312 640.8046875 C240.14294333 641.31497748 250.55467791 640.96903083 260.4296875 634.359375 C265.67087434 631.15265413 269.83087071 628.7634787 276.18359375 629.40625 C279.89479088 630.44848373 282.5071574 632.2493449 285.2421875 634.984375 C285.55467104 637.88461287 285.56091137 639.47640883 283.9921875 641.9765625 C280.28906672 645.9607237 276.47895851 649.63716604 272.32421875 653.1484375 C270.1124515 655.09877635 268.09616768 657.16955562 266.0546875 659.296875 C257.91478177 667.49243821 248.76143581 673.84824131 238.83837891 679.66235352 C228.93382985 685.47555996 220.07194222 691.96525104 211.6796875 699.80859375 C208.05510943 703.04399437 204.68113153 705.66095809 199.73828125 706.31640625 C197.2421875 705.984375 197.2421875 705.984375 195.58203125 704.33203125 C187.2421875 690.74203517 187.2421875 690.74203517 187.2421875 683.984375 C186.39333984 683.63826172 186.39333984 683.63826172 185.52734375 683.28515625 C182.65252908 681.64872329 180.87116872 679.64517106 178.6796875 677.171875 C177.53306641 675.89376953 177.53306641 675.89376953 176.36328125 674.58984375 C174.2421875 671.984375 174.2421875 671.984375 172.70703125 669.375 C171.1674927 666.86247309 169.64438371 665.39432796 167.3671875 663.546875 C164.82847967 661.41436042 162.85818684 659.51397419 160.7421875 656.921875 C157.36797484 652.95717513 153.47873303 648.51885041 148.11328125 647.6328125 C147.39269531 647.60445312 146.67210937 647.57609375 145.9296875 647.546875 C136.15928421 647.01151044 128.22805401 638.41713939 121.1484375 632.4140625 C115.48615483 627.68027242 110.24587098 623.45354079 103.1171875 621.296875 C94.68296221 618.49335271 88.10879839 612.44161362 81.2421875 606.984375 C53.87054819 585.38988287 30.42098995 569.89444581 -4.2578125 563.609375 C-16.50109036 561.1917478 -27.80523651 556.50836713 -39.12353516 551.37060547 C-46.49324968 548.0491968 -53.95057589 544.94849875 -61.4453125 541.921875 C-62.09011566 541.66143402 -62.73491882 541.40099304 -63.39926147 541.13265991 C-72.82060499 537.34937152 -82.31330395 534.14025543 -92.0847168 531.37060547 C-98.84010923 529.4105232 -104.74347231 526.79626886 -110.8203125 523.26953125 C-115.63572903 521.16278652 -119.20129884 521.37538443 -124.0625 523.27734375 C-125.2602465 523.89423649 -126.44994878 524.52690464 -127.6328125 525.171875 C-128.30062744 525.52137207 -128.96844238 525.87086914 -129.65649414 526.23095703 C-131.17084256 527.02432374 -132.68213847 527.82353451 -134.19091797 528.62744141 C-137.03482164 530.13080993 -139.89644916 531.59637119 -142.76171875 533.05859375 C-151.90655618 537.74116587 -161.00224675 542.41550551 -169.7578125 547.796875 C-177.93898522 552.77771933 -186.52173034 556.93556007 -195.1328125 561.109375 C-195.85598663 561.45996979 -196.57916077 561.81056458 -197.32424927 562.17178345 C-206.34195343 566.52793336 -215.37922081 570.82166383 -224.80029297 574.25048828 C-229.95330408 576.23690118 -233.71465142 579.21340707 -237.94750977 582.72753906 C-243.3054317 587.03026084 -249.04480757 590.79930399 -254.7578125 594.609375 C-255.72793274 595.25885101 -255.72793274 595.25885101 -256.71765137 595.92144775 C-267.85404486 603.3503727 -279.24912807 609.89717025 -291.1484375 616.0390625 C-299.42286112 620.32704579 -307.18098021 625.05522924 -314.5703125 630.734375 C-315.24827881 631.2495166 -315.92624512 631.7646582 -316.62475586 632.29541016 C-318.00621018 633.34657645 -319.38587774 634.40009543 -320.76367188 635.45605469 C-322.64836761 636.90049584 -324.53823196 638.33786597 -326.4296875 639.7734375 C-330.99718676 643.25199226 -335.53347958 646.72323801 -339.8203125 650.546875 C-342.53161239 652.79667703 -343.45769051 653.49065596 -346.7578125 653.984375 C-347.6446875 653.71625 -348.5315625 653.448125 -349.4453125 653.171875 C-354.01276547 652.91333993 -355.98853727 654.87202621 -359.58984375 657.49609375 C-362.18498092 659.27762035 -364.76555453 660.0534503 -367.7578125 660.984375 C-371.65547726 663.27711898 -374.13036041 665.35598878 -376.7578125 668.984375 C-377.7478125 669.314375 -378.7378125 669.644375 -379.7578125 669.984375 C-381.56079086 672.43075222 -381.56079086 672.43075222 -383.2578125 675.359375 C-388.0554397 683.33437811 -388.0554397 683.33437811 -393.1953125 685.296875 C-397.31303754 687.24737633 -398.4583405 689.15192166 -400.7578125 692.984375 C-401.4178125 692.984375 -402.0778125 692.984375 -402.7578125 692.984375 C-402.9846875 693.70625 -403.2115625 694.428125 -403.4453125 695.171875 C-405.11868571 698.75767473 -406.60464241 700.55380639 -409.7578125 702.984375 C-415.30647985 704.86480818 -420.03094752 705.20285691 -425.7578125 703.984375 C-432.55268648 703.1249443 -437.21107529 704.72044317 -443.27734375 707.79296875 C-450.01105224 711.02726968 -457.05303693 710.60012366 -464.06640625 708.3515625 C-471.60180197 704.52371271 -479.66888397 695.86033413 -482.7578125 687.984375 C-483.45841533 684.88170533 -483.28732317 683.26734118 -482.7578125 679.984375 C-479.59349887 675.14483651 -475.41622835 670.87616097 -469.62451172 669.46435547 C-467.1726492 669.09578153 -464.72328066 668.80900945 -462.2578125 668.546875 C-454.61444661 667.57664289 -448.01605766 666.00829627 -440.828125 663.1875 C-437.15687904 661.74889471 -433.43765599 660.64154897 -429.6484375 659.5625 C-427.69614407 659.0227567 -427.69614407 659.0227567 -425.7578125 657.984375 C-425.4484375 656.85 -425.1390625 655.715625 -424.8203125 654.546875 C-423.7578125 650.984375 -423.7578125 650.984375 -420.7578125 648.984375 C-417.5703125 648.859375 -417.5703125 648.859375 -414.7578125 648.984375 C-415.06460938 648.42363281 -415.37140625 647.86289062 -415.6875 647.28515625 C-418.47825045 641.2860613 -419.04207354 634.52237886 -418.7578125 627.984375 C-417.1078125 627.654375 -415.4578125 627.324375 -413.7578125 626.984375 C-411.21259995 631.61203419 -409.9032278 635.8740606 -408.7578125 640.984375 C-407.7678125 640.984375 -406.7778125 640.984375 -405.7578125 640.984375 C-404.12454799 638.73528945 -402.81947697 636.37223996 -401.453125 633.953125 C-399.7578125 631.984375 -399.7578125 631.984375 -397.20703125 631.640625 C-394.66676611 631.99715344 -392.95355999 632.6831913 -390.7578125 633.984375 C-389.15367035 632.79913503 -389.15367035 632.79913503 -387.7578125 630.984375 C-387.82097656 630.2109375 -387.88414062 629.4375 -387.94921875 628.640625 C-387.7578125 625.984375 -387.7578125 625.984375 -385.81640625 623.80859375 C-384.95144531 623.10347656 -384.08648437 622.39835938 -383.1953125 621.671875 C-380.02244239 618.97382601 -377.06164971 616.36254959 -374.3828125 613.171875 C-366.40878881 603.77525553 -357.46320444 595.55538614 -347.7578125 587.984375 C-346.77425781 587.19546875 -345.79070312 586.4065625 -344.77734375 585.59375 C-329.16224422 573.17733826 -311.90269111 562.55322723 -293.7890625 554.1953125 C-292.7676416 553.72222656 -291.7462207 553.24914062 -290.69384766 552.76171875 C-288.71181699 551.85369641 -286.72222104 550.96193706 -284.72412109 550.08984375 C-278.91412297 547.44291978 -274.84941621 544.59135965 -270.61987305 539.78344727 C-265.67424341 535.00511439 -258.41275509 533.56306566 -251.7578125 532.984375 C-251.52835938 532.2934375 -251.29890625 531.6025 -251.0625 530.890625 C-249.47159195 527.34680588 -247.29613004 524.49249169 -244.8828125 521.484375 C-244.3973999 520.87489014 -243.9119873 520.26540527 -243.41186523 519.63745117 C-232.3862254 505.96438701 -220.23674625 493.16138596 -205.47705078 483.50708008 C-201.48973177 480.82368474 -199.26013505 478.05064915 -196.7578125 473.984375 C-194.36187811 471.00760803 -192.07201241 470.27041896 -188.4453125 469.171875 C-183.09566825 467.32961341 -180.30488804 465.37154738 -176.7578125 460.984375 C-175.7527642 457.9692301 -175.61965169 455.87654811 -175.58203125 452.72265625 C-175.55818359 451.68560547 -175.53433594 450.64855469 -175.50976562 449.58007812 C-175.46718408 447.41100014 -175.43572556 445.241672 -175.41601562 443.07226562 C-175.24436914 436.60957593 -174.64529158 431.31923095 -170.7578125 425.984375 C-167.69076314 423.37412023 -165.90226915 422.08389297 -161.8828125 421.734375 C-161.1815625 421.816875 -160.4803125 421.899375 -159.7578125 421.984375 C-159.3865625 421.1490625 -159.3865625 421.1490625 -159.0078125 420.296875 C-157.7578125 417.984375 -157.7578125 417.984375 -155.5703125 415.734375 C-153.53255895 412.64261099 -153.46527759 411.14518325 -154.1484375 407.55859375 C-154.34953125 406.70910156 -154.550625 405.85960937 -154.7578125 404.984375 C-155.02078125 403.79457031 -155.28375 402.60476563 -155.5546875 401.37890625 C-157.34376397 393.26181208 -157.34376397 393.26181208 -161.3828125 386.109375 C-163.69558878 383.06624831 -164.0442452 382.26212046 -164.5703125 378.734375 C-165.50851083 373.31883415 -168.5473642 369.71386153 -171.8828125 365.46484375 C-173.7578125 362.984375 -173.7578125 362.984375 -174.8125 360.70703125 C-175.12445313 360.13855469 -175.43640625 359.57007813 -175.7578125 358.984375 C-178.81689663 358.16852932 -178.81689663 358.16852932 -181.7578125 357.984375 C-182.098125 359.098125 -182.098125 359.098125 -182.4453125 360.234375 C-184.04192679 363.57966208 -185.70087988 364.92272277 -188.7578125 366.984375 C-189.53898437 367.15582031 -190.32015625 367.32726562 -191.125 367.50390625 C-195.41527216 369.91638867 -196.60362299 374.11665435 -198.5703125 378.484375 C-205.56785418 393.16974061 -214.99973014 404.12241488 -228.78198242 412.88867188 C-242.13683482 421.44322695 -250.00739736 433.92486244 -253.5703125 449.546875 C-253.6321875 450.68125 -253.6940625 451.815625 -253.7578125 452.984375 C-253.80808594 453.88414062 -253.85835937 454.78390625 -253.91015625 455.7109375 C-254.26022603 461.18899346 -254.26022603 461.18899346 -252.46875 466.22265625 C-250.68048194 468.2969295 -250.68048194 468.2969295 -247.1328125 469.484375 C-243.7578125 470.984375 -243.7578125 470.984375 -242.6953125 472.984375 C-242.7578125 474.984375 -242.7578125 474.984375 -244.7578125 477.984375 C-249.96055619 478.84890277 -255.8505043 479.1196394 -260.3828125 476.109375 C-261.87652618 474.77289434 -263.34053322 473.40165428 -264.7578125 471.984375 C-267.15019604 471.3686651 -267.15019604 471.3686651 -269.7578125 471.984375 C-272.15635473 474.32947494 -272.15635473 474.32947494 -274.2578125 477.359375 C-277.12418117 481.26530695 -278.98097607 483.72107942 -283.7578125 484.984375 C-286.0703125 484.609375 -286.0703125 484.609375 -287.7578125 483.984375 C-286.8828125 477.234375 -286.8828125 477.234375 -285.7578125 474.984375 C-292.94828934 476.86592318 -292.94828934 476.86592318 -300.0078125 479.171875 C-303.94296439 480.33453351 -308.00357753 480.86149248 -311.7578125 478.984375 C-311.60546875 476.69140625 -311.60546875 476.69140625 -310.7578125 473.984375 C-308.25390625 472.18359375 -308.25390625 472.18359375 -305.1953125 470.671875 C-304.18339844 470.16011719 -303.17148437 469.64835937 -302.12890625 469.12109375 C-300.95521484 468.55841797 -300.95521484 468.55841797 -299.7578125 467.984375 C-300.36367188 468.12875 -300.96953125 468.273125 -301.59375 468.421875 C-311.4558137 470.60670142 -320.95139917 470.74242875 -330.7578125 467.984375 C-331.4178125 467.324375 -332.0778125 466.664375 -332.7578125 465.984375 C-332.3828125 463.859375 -332.3828125 463.859375 -331.7578125 461.984375 C-330.88999146 461.87947754 -330.88999146 461.87947754 -330.00463867 461.77246094 C-312.92990707 459.65914225 -295.93601007 457.3591797 -284.53125 443.08984375 C-282.62107203 440.82203334 -280.52747725 438.96178369 -278.3203125 436.984375 C-272.79719916 431.52679012 -269.9366994 425.05756339 -266.73291016 418.09716797 C-258.06836759 399.32326928 -247.74585101 381.387369 -233.3828125 366.359375 C-229.81977874 362.46141607 -228.332025 358.74616012 -226.74609375 353.7578125 C-224.6973885 348.00848155 -221.42969825 342.87180965 -217.39453125 338.31640625 C-213.99239342 334.30194726 -211.8472024 329.66694431 -209.5078125 324.984375 C-194.90227041 296.52235636 -194.90227041 296.52235636 -182.8203125 292.046875 C-176.49606763 289.68851885 -171.5348002 286.4228964 -168.375 280.30859375 C-167.39568571 277.88770143 -166.5213201 275.48084394 -165.7578125 272.984375 C-166.42167969 272.3553125 -167.08554687 271.72625 -167.76953125 271.078125 C-176.0981225 263.00486283 -181.79654821 256.78019146 -182.0703125 244.921875 C-181.95613323 233.60544079 -177.73101169 225.03192937 -169.875 217.078125 C-161.6644119 209.47930621 -153.95561275 206.61012178 -142.84765625 206.78515625 C-134.02382304 207.35407596 -129.27648952 210.78973039 -123.01953125 216.92578125 C-120.95811468 218.80206196 -119.23600241 219.79725092 -116.7578125 220.984375 C-116.4278125 221.644375 -116.0978125 222.304375 -115.7578125 222.984375 C-113.67699459 223.85552787 -113.67699459 223.85552787 -111.2578125 224.546875 C-106.84892867 225.89325883 -106.84892867 225.89325883 -105.7578125 226.984375 C-105.6546875 228.056875 -105.5515625 229.129375 -105.4453125 230.234375 C-104.69878161 234.30636167 -103.55009587 236.01194432 -100.7578125 238.984375 C-100.2628125 238.159375 -99.7678125 237.334375 -99.2578125 236.484375 C-97.42888558 233.6661353 -95.35518796 231.73673905 -92.8203125 229.546875 C-87.82214002 224.63169801 -86.29725986 218.86781918 -84.44677734 212.30810547 C-83.67838173 209.71647207 -82.81409727 207.16895514 -81.93359375 204.61328125 C-78.74216334 195.24695089 -76.33782126 187.06436642 -76.125 177.14453125 C-75.55935304 172.27635691 -73.3595379 168.42256471 -71.1640625 164.09375 C-69.82033139 161.12261121 -69.22867813 158.82061378 -68.8203125 155.609375 C-67.98698338 149.17711588 -66.18400552 143.11699498 -64.3203125 136.921875 C-64.01939697 135.89723145 -63.71848145 134.87258789 -63.40844727 133.81689453 C-63.11252686 132.84993652 -62.81660645 131.88297852 -62.51171875 130.88671875 C-62.24689697 130.01523193 -61.9820752 129.14374512 -61.70922852 128.24584961 C-60.7578125 125.984375 -60.7578125 125.984375 -59.26220703 124.57299805 C-57.03198594 122.21791063 -56.69411889 119.7931433 -55.93359375 116.6640625 C-55.62744141 115.4059375 -55.32128906 114.1478125 -55.00585938 112.8515625 C-54.85238037 112.19510742 -54.69890137 111.53865234 -54.54077148 110.86230469 C-54.07592108 108.88325294 -53.58917227 106.91056437 -53.09960938 104.9375 C-49.33533653 89.17410583 -51.7613461 79.00849953 -58.7578125 64.671875 C-65.29492035 51.143861 -69.54651445 36.7564286 -65.6328125 21.734375 C-61.6190489 10.43294846 -54.24753504 0.81805165 -43.2578125 -4.453125 C-28.7136425 -9.98650905 -12.84403348 -9.3874239 0 0 Z " fill="#000000" transform="translate(498.7578125,49.015625)"/>
</svg>
