<?xml version="1.0" encoding="UTF-8"?>
<svg version="1.1" xmlns="http://www.w3.org/2000/svg" width="1024" height="1024">
<path d="M0 0 C0 1.32 0 2.64 0 4 C-8.55356802 8.54309381 -17.45076057 12.26191929 -26.35836792 16.04013062 C-31.04688283 18.02947814 -35.73067755 20.02986068 -40.4140625 22.03125 C-41.85884224 22.64857246 -41.85884224 22.64857246 -43.33280945 23.27836609 C-53.23052094 27.51459385 -63.08624426 31.84459071 -72.9375 36.1875 C-85.32760737 41.64680048 -97.73501446 47.05944792 -110.1875 52.375 C-123.91978219 58.23701214 -137.62202667 64.16599126 -151.3125 70.125 C-152.80635223 70.775186 -152.80635223 70.775186 -154.3303833 71.43850708 C-158.24636258 73.1429997 -162.16228856 74.84761463 -166.07809448 76.55250549 C-173.56945828 79.81380046 -181.06459406 83.06626978 -188.5625 86.3125 C-197.81441343 90.31851738 -207.06430041 94.32916578 -216.3125 98.34375 C-217.9743634 99.06515419 -217.9743634 99.06515419 -219.6697998 99.8011322 C-220.79776978 100.29077957 -221.92573975 100.78042694 -223.08789062 101.28491211 C-246.7170897 111.54223831 -270.35187802 121.78637806 -294 132 C-295.70963557 132.73844366 -297.41927098 133.47688769 -299.12890625 134.21533203 C-309.27564263 138.59787752 -319.42282013 142.97940098 -329.57020569 147.36044312 C-338.79933711 151.34504431 -348.02820805 155.33024863 -357.25704956 159.31552124 C-361.8380219 161.29370661 -366.41901185 163.27185122 -371 165.25 C-372.83333342 166.04166647 -374.66666675 166.83333314 -376.5 167.625 C-387.50000003 172.37500001 -387.50000003 172.37500001 -390.25018311 173.56257629 C-392.08290878 174.35398241 -393.91563176 175.14539476 -395.74835205 175.93681335 C-400.34096048 177.92001762 -404.93361611 179.90311244 -409.52636719 181.88598633 C-417.66571028 185.40018751 -425.80478089 188.91500907 -433.94198608 192.43415833 C-461.24857571 204.2435368 -488.58607206 215.9798659 -515.93597412 227.68856812 C-523.17080123 230.78647144 -530.40292527 233.8905871 -537.6328125 237 C-547.74825511 241.34967087 -557.86973019 245.68496825 -568 250 C-568.79196777 250.33753296 -569.58393555 250.67506592 -570.39990234 251.02282715 C-641.08660381 281.12705437 -641.08660381 281.12705437 -677 287 C-678.76537109 287.29003906 -678.76537109 287.29003906 -680.56640625 287.5859375 C-686.62150472 288.29407487 -692.73504152 288.22380436 -698.82373047 288.24023438 C-700.96753048 288.2498543 -703.11033363 288.28091155 -705.25390625 288.3125 C-718.44854567 288.4151038 -731.17549336 286.63256178 -743.5625 281.875 C-744.74573853 281.42821899 -744.74573853 281.42821899 -745.95288086 280.97241211 C-766.44890687 272.90911309 -786.23701694 258.13210054 -795.47265625 237.75 C-806.99052925 208.1997719 -798.97465105 175.12035412 -787 147 C-783.23304782 138.55150739 -779.16014082 130.26042349 -775 122 C-774.65001953 121.29359375 -774.30003906 120.5871875 -773.93945312 119.859375 C-764.74297043 101.34975233 -753.30751218 83.57919167 -741 67 C-740.2178707 65.89829808 -739.43929965 64.79406257 -738.6640625 63.6875 C-726.09151851 45.75309808 -712.32187341 28.56601448 -698 12 C-697.505 12.99 -697.505 12.99 -697 14 C-697.70922852 16.05273438 -697.70922852 16.05273438 -698.87890625 18.59375 C-699.30284668 19.53234863 -699.72678711 20.47094727 -700.16357422 21.43798828 C-700.62521973 22.44845215 -701.08686523 23.45891602 -701.5625 24.5 C-714.13020654 52.81572276 -724.39110182 86.5488574 -713 117 C-708.92308853 127.10949266 -703.94692779 135.40658323 -696 143 C-695.39929688 143.62003906 -694.79859375 144.24007812 -694.1796875 144.87890625 C-678.76664218 159.79152802 -655.36735073 164.71246957 -634.625 165.25 C-632.74902785 165.19257228 -630.8738063 165.10686163 -629 165 C-627.86304688 164.95488281 -626.72609375 164.90976562 -625.5546875 164.86328125 C-615.33639965 164.21698045 -605.57404427 161.76634871 -595.70703125 159.17578125 C-594.17691188 158.77796559 -592.64674374 158.38033743 -591.11653137 157.98287964 C-571.80277076 152.94993996 -552.54547333 147.70285891 -533.28598404 142.46701431 C-527.97847975 141.02469784 -522.6702271 139.58514048 -517.36206055 138.14526367 C-507.81752738 135.55584559 -498.27356811 132.96432055 -488.72994137 130.37156391 C-479.54165812 127.87535129 -470.35292921 125.3807826 -461.1640625 122.88671875 C-458.31371795 122.11304724 -455.4633771 121.33936213 -452.61303711 120.56567383 C-451.92446467 120.3787733 -451.23589224 120.19187277 -450.52645397 119.99930859 C-446.36329718 118.86926774 -442.20021199 117.73896354 -438.03717709 116.60847378 C-412.38986975 109.64394023 -386.73657014 102.70161495 -361.08253479 95.76191139 C-356.54330041 94.53399752 -352.00406995 93.30606914 -347.46484375 92.078125 C-346.55351433 91.83159557 -345.64218491 91.58506615 -344.70323944 91.33106613 C-322.36345146 85.28767202 -300.02538006 79.23794183 -277.6875 73.1875 C-276.68657822 72.91639027 -275.68565643 72.64528053 -274.65440369 72.36595535 C-266.51656755 70.16173263 -258.37873518 67.95749601 -250.24091721 65.75320625 C-236.36923584 61.9957876 -222.49736746 58.23906034 -208.62530899 54.48303413 C-165.24904772 42.73835116 -121.87442343 30.98762986 -78.50205112 19.22859323 C-77.83430454 19.04755505 -77.16655797 18.86651686 -76.47857666 18.67999268 C-75.47997332 18.40925255 -75.47997332 18.40925255 -74.46119618 18.13304293 C-69.79577781 16.86818395 -65.13029434 15.60356528 -60.46478271 14.33905029 C-54.18858624 12.63797704 -47.91252854 10.93639243 -41.63656425 9.23446274 C-39.31501061 8.60497815 -36.9934134 7.97565422 -34.6717701 7.3465004 C-31.48215001 6.48209516 -28.29269083 5.61709871 -25.10327148 4.75195312 C-24.17563681 4.50070364 -23.24800213 4.24945415 -22.29225731 3.99059105 C-18.52611796 2.96844134 -14.76578952 1.93696716 -11.02064514 0.84020996 C-7.1424311 -0.23853776 -3.99927754 -0.14032553 0 0 Z " fill="#1A1A1A" transform="translate(912,367)"/>
</svg>
